<mxfile host="app.diagrams.net" modified="2023-11-04T07:56:20.205Z" agent="Mozilla/5.0 (Windows NT 10.0; Win64; x64) AppleWebKit/537.36 (KHTML, like Gecko) Chrome/119.0.0.0 Safari/537.36" etag="7K5wOHwzddU6p2eXIHvn" version="22.0.8" type="device" pages="2">
  <diagram name="单元格间距为0于单元格合并的区别" id="oCLzveYxJNFSor_yxUdE">
    <mxGraphModel dx="1377" dy="661" grid="1" gridSize="10" guides="1" tooltips="1" connect="1" arrows="1" fold="1" page="1" pageScale="1" pageWidth="827" pageHeight="1169" math="0" shadow="0">
      <root>
        <mxCell id="0" />
        <mxCell id="1" parent="0" />
        <mxCell id="i-TxWEz2V5cJZ1E7J9Ne-3" value="" style="rounded=0;whiteSpace=wrap;html=1;strokeWidth=4;strokeColor=#121212;" vertex="1" parent="1">
          <mxGeometry x="50" y="282" width="120" height="60" as="geometry" />
        </mxCell>
        <mxCell id="i-TxWEz2V5cJZ1E7J9Ne-4" value="" style="rounded=0;whiteSpace=wrap;html=1;strokeWidth=4;" vertex="1" parent="1">
          <mxGeometry x="-74" y="282" width="120" height="60" as="geometry" />
        </mxCell>
        <mxCell id="i-TxWEz2V5cJZ1E7J9Ne-6" value="&lt;font face=&quot;Times New Roman&quot; style=&quot;font-size: 15px;&quot;&gt;间距为0&lt;/font&gt;" style="whiteSpace=wrap;html=1;rounded=1;arcSize=50;align=center;verticalAlign=middle;strokeWidth=1;autosize=1;spacing=4;treeFolding=1;treeMoving=1;newEdgeStyle={&quot;edgeStyle&quot;:&quot;entityRelationEdgeStyle&quot;,&quot;startArrow&quot;:&quot;none&quot;,&quot;endArrow&quot;:&quot;none&quot;,&quot;segment&quot;:10,&quot;curved&quot;:1,&quot;sourcePerimeterSpacing&quot;:0,&quot;targetPerimeterSpacing&quot;:0};" vertex="1" parent="1">
          <mxGeometry x="110" y="212" width="100" height="40" as="geometry" />
        </mxCell>
        <mxCell id="i-TxWEz2V5cJZ1E7J9Ne-7" value="" style="edgeStyle=entityRelationEdgeStyle;startArrow=none;endArrow=none;segment=10;curved=1;sourcePerimeterSpacing=0;targetPerimeterSpacing=0;rounded=0;exitX=0.25;exitY=0;exitDx=0;exitDy=0;" edge="1" parent="1" source="i-TxWEz2V5cJZ1E7J9Ne-3">
          <mxGeometry relative="1" as="geometry">
            <mxPoint x="70" y="269" as="sourcePoint" />
            <mxPoint x="110" y="232" as="targetPoint" />
          </mxGeometry>
        </mxCell>
        <mxCell id="i-TxWEz2V5cJZ1E7J9Ne-8" value="" style="rounded=0;whiteSpace=wrap;html=1;fontSize=18;strokeWidth=4;" vertex="1" parent="1">
          <mxGeometry x="50" y="402" width="120" height="60" as="geometry" />
        </mxCell>
        <mxCell id="i-TxWEz2V5cJZ1E7J9Ne-9" value="" style="rounded=0;whiteSpace=wrap;html=1;strokeWidth=4;" vertex="1" parent="1">
          <mxGeometry x="-70" y="402" width="120" height="60" as="geometry" />
        </mxCell>
        <mxCell id="i-TxWEz2V5cJZ1E7J9Ne-10" value="Sub Topic" style="whiteSpace=wrap;html=1;rounded=1;arcSize=50;align=center;verticalAlign=middle;strokeWidth=1;autosize=1;spacing=4;treeFolding=1;treeMoving=1;newEdgeStyle={&quot;edgeStyle&quot;:&quot;entityRelationEdgeStyle&quot;,&quot;startArrow&quot;:&quot;none&quot;,&quot;endArrow&quot;:&quot;none&quot;,&quot;segment&quot;:10,&quot;curved&quot;:1,&quot;sourcePerimeterSpacing&quot;:0,&quot;targetPerimeterSpacing&quot;:0};fontSize=15;" vertex="1" parent="1">
          <mxGeometry x="105" y="517" width="110" height="40" as="geometry" />
        </mxCell>
        <mxCell id="i-TxWEz2V5cJZ1E7J9Ne-11" value="" style="edgeStyle=entityRelationEdgeStyle;startArrow=none;endArrow=none;segment=10;curved=1;sourcePerimeterSpacing=0;targetPerimeterSpacing=0;rounded=0;exitX=0.25;exitY=1;exitDx=0;exitDy=0;" edge="1" target="i-TxWEz2V5cJZ1E7J9Ne-10" parent="1" source="i-TxWEz2V5cJZ1E7J9Ne-8">
          <mxGeometry relative="1" as="geometry">
            <mxPoint x="80" y="564" as="sourcePoint" />
          </mxGeometry>
        </mxCell>
      </root>
    </mxGraphModel>
  </diagram>
  <diagram id="JAZjzmvbLD5bn6wupUaq" name="Page-2">
    <mxGraphModel dx="550" dy="661" grid="1" gridSize="10" guides="1" tooltips="1" connect="1" arrows="1" fold="1" page="1" pageScale="1" pageWidth="827" pageHeight="1169" math="0" shadow="0">
      <root>
        <mxCell id="0" />
        <mxCell id="1" parent="0" />
      </root>
    </mxGraphModel>
  </diagram>
</mxfile>
